{
  "accessors": [
    {
      "bufferView": 2,
      "componentType": 5126,
      "count": 98,
      "max": [
        10.447582244873047,
        9.9362411499023438,
        108.84815216064453
      ],
      "min": [
        -10.447582244873047,
        -9.9362411499023438,
        0
      ],
      "type": "VEC3"
    },
    {
      "bufferView": 2,
      "byteOffset": 1176,
      "componentType": 5126,
      "count": 98,
      "max": [
        0.98680442571640015,
        0.9385068416595459,
        0.40534019470214844
      ],
      "min": [
        -0.98680442571640015,
        -0.93850690126419067,
        -1
      ],
      "type": "VEC3"
    },
    {
      "bufferView": 3,
      "componentType": 5126,
      "count": 98,
      "max": [
        0.96592658758163452,
        0.99861901998519897,
        0.13970170915126801,
        1
      ],
      "min": [
        -0.95938378572463989,
        -0.99999988079071045,
        -0.13970187306404114,
        -1
      ],
      "type": "VEC4"
    },
    {
      "bufferView": 1,
      "componentType": 5126,
      "count": 98,
      "max": [
        0.99115645885467529,
        0.89911568164825439
      ],
      "min": [
        0.0090167568996548653,
        0.0081611145287752151
      ],
      "type": "VEC2"
    },
    {
      "bufferView": 0,
      "componentType": 5125,
      "count": 444,
      "max": [
        97
      ],
      "min": [
        0
      ],
      "type": "SCALAR"
    },
    {
      "bufferView": 2,
      "byteOffset": 2352,
      "componentType": 5126,
      "count": 51,
      "max": [
        3.7760834693908691,
        3.5912740230560303,
        112.37806701660156
      ],
      "min": [
        -3.7760829925537109,
        -3.5912675857543945,
        108.84815216064453
      ],
      "type": "VEC3"
    },
    {
      "bufferView": 2,
      "byteOffset": 2964,
      "componentType": 5126,
      "count": 51,
      "max": [
        1,
        0.9510568380355835,
        1
      ],
      "min": [
        -1,
        -0.95105701684951782,
        -1
      ],
      "type": "VEC3"
    },
    {
      "bufferView": 3,
      "byteOffset": 1568,
      "componentType": 5126,
      "count": 51,
      "max": [
        0.95953315496444702,
        0.46387273073196411,
        0.99491232633590698,
        1
      ],
      "min": [
        -2.4673457943436006e-08,
        -0.31134605407714844,
        -0.99509292840957642,
        1
      ],
      "type": "VEC4"
    },
    {
      "bufferView": 1,
      "byteOffset": 784,
      "componentType": 5126,
      "count": 51,
      "max": [
        0.99437832832336426,
        0.66531860828399658
      ],
      "min": [
        0.70928877592086792,
        0.36579644680023193
      ],
      "type": "VEC2"
    },
    {
      "bufferView": 0,
      "byteOffset": 1776,
      "componentType": 5125,
      "count": 210,
      "max": [
        50
      ],
      "min": [
        0
      ],
      "type": "SCALAR"
    }
  ],
  "asset": {
    "extras": {
      "author": "TraianDumbrava (https://sketchfab.com/TraianDumbrava)",
      "license": "CC-BY-4.0 (http://creativecommons.org/licenses/by/4.0/)",
      "source": "https://sketchfab.com/models/3c6f04b0a330419c9b94e5da6248bb3f",
      "title": "Samuel Beer"
    },
    "generator": "Sketchfab-3.19.3",
    "version": "2.0"
  },
  "bufferViews": [
    {
      "buffer": 0,
      "byteLength": 2616,
      "byteOffset": 0,
      "name": "floatBufferViews",
      "target": 34963
    },
    {
      "buffer": 0,
      "byteLength": 1192,
      "byteOffset": 2616,
      "byteStride": 8,
      "name": "floatBufferViews",
      "target": 34962
    },
    {
      "buffer": 0,
      "byteLength": 3576,
      "byteOffset": 3808,
      "byteStride": 12,
      "name": "floatBufferViews",
      "target": 34962
    },
    {
      "buffer": 0,
      "byteLength": 2384,
      "byteOffset": 7384,
      "byteStride": 16,
      "name": "floatBufferViews",
      "target": 34962
    }
  ],
  "buffers": [
    {
      "byteLength": 9768,
      "uri": "scene.bin"
    }
  ],
  "images": [
    {
      "uri": "textures/Scene_-_Root_normal.jpeg"
    },
    {
      "uri": "textures/Scene_-_Root_metallicRoughness.png"
    },
    {
      "uri": "textures/Scene_-_Root_baseColor.jpeg"
    }
  ],
  "materials": [
    {
      "doubleSided": true,
      "emissiveFactor": [
        0,
        0,
        0
      ],
      "name": "Scene_-_Root",
      "normalTexture": {
        "index": 0,
        "scale": 0.7578125,
        "texCoord": 0
      },
      "pbrMetallicRoughness": {
        "baseColorFactor": [
          1,
          1,
          1,
          1
        ],
        "baseColorTexture": {
          "index": 2,
          "texCoord": 0
        },
        "metallicFactor": 1,
        "metallicRoughnessTexture": {
          "index": 1,
          "texCoord": 0
        },
        "roughnessFactor": 1
      }
    }
  ],
  "meshes": [
    {
      "name": "Bottle_low__0",
      "primitives": [
        {
          "attributes": {
            "NORMAL": 1,
            "POSITION": 0,
            "TANGENT": 2,
            "TEXCOORD_0": 3
          },
          "indices": 4,
          "material": 0,
          "mode": 4
        }
      ]
    },
    {
      "name": "Cap_low__0",
      "primitives": [
        {
          "attributes": {
            "NORMAL": 6,
            "POSITION": 5,
            "TANGENT": 7,
            "TEXCOORD_0": 8
          },
          "indices": 9,
          "material": 0,
          "mode": 4
        }
      ]
    }
  ],
  "nodes": [
    {
      "children": [
        1
      ],
      "name": "RootNode (gltf orientation matrix)",
      "rotation": [
        -0.70710678118654746,
        -0,
        -0,
        0.70710678118654757
      ]
    },
    {
      "children": [
        2
      ],
      "name": "RootNode (model correction matrix)"
    },
    {
      "children": [
        3
      ],
      "matrix": [
        1,
        0,
        0,
        0,
        0,
        0,
        1,
        0,
        0,
        -1,
        0,
        0,
        0,
        0,
        0,
        1
      ],
      "name": "bottle_low.FBX"
    },
    {
      "children": [
        4,
        6
      ],
      "name": "RootNode"
    },
    {
      "children": [
        5
      ],
      "matrix": [
        1.9474472999572754,
        0,
        0,
        0,
        0,
        4.3242016633133215e-16,
        -1.9474472999572754,
        0,
        0,
        1.3400229215621948,
        2.9754486020876377e-16,
        0,
        0,
        3.2590179443359375,
        0,
        1
      ],
      "name": "Bottle_low"
    },
    {
      "mesh": 0,
      "name": "Bottle_low__0"
    },
    {
      "children": [
        7
      ],
      "matrix": [
        1.9474472999572754,
        0,
        0,
        0,
        0,
        4.3242016633133215e-16,
        -1.9474472999572754,
        0,
        0,
        1.3400229215621948,
        2.9754486020876377e-16,
        0,
        0,
        3.2590179443359375,
        0,
        1
      ],
      "name": "Cap_low"
    },
    {
      "mesh": 1,
      "name": "Cap_low__0"
    }
  ],
  "samplers": [
    {
      "magFilter": 9729,
      "minFilter": 9987,
      "wrapS": 10497,
      "wrapT": 10497
    }
  ],
  "scene": 0,
  "scenes": [
    {
      "name": "OSG_Scene",
      "nodes": [
        0
      ]
    }
  ],
  "textures": [
    {
      "sampler": 0,
      "source": 0
    },
    {
      "sampler": 0,
      "source": 1
    },
    {
      "sampler": 0,
      "source": 2
    }
  ]
}

